# xmcd
#
# Track frame offsets: 
#        150
#        16875
#        34015
#        50357
#        74445
#        96032
#        115357
#        133432
#        159677
#        175152
#        204867
#
# Disc length: 3045 seconds
#
# Revision: 0
# Processed by: cddbd v1.5.2PL0 Copyright (c) Steve Scherf et al.
# Submitted via: ExactAudioCopy v0.95b4
#
DISCID=950be30b
DTITLE=Celia Cruz - Fania Legends of Salsa
DYEAR=2001
DGENRE=Salsa
TTITLE0=El De La Rumba Soy Yo
TTITLE1=Cao Cao Maní Picao
TTITLE2=Aquarius/Sunshine
TTITLE3=Dice Antón
TTITLE4=Guantanamera
TTITLE5=Mi Bohío
TTITLE6=El Guaba
TTITLE7=La Dicha Mía
TTITLE8=Pun Pun Catalú
TTITLE9=La Ceiba y La Siguaraya
TTITLE10=Mi Caso
EXTD=
EXTT0=
EXTT1=
EXTT2=
EXTT3=
EXTT4=
EXTT5=
EXTT6=
EXTT7=
EXTT8=
EXTT9=
EXTT10=
PLAYORDER=
